# xmcd
#
# Track frame offsets: 
#        150
#        26099
#        38399
#        57449
#        75261
#        90899
#        105224
#        114974
#        137211
#        150974
#
# Disc length: 2300 seconds
#
# Revision: 0
# Processed by: cddbd v1.5.2PL0 Copyright (c) Steve Scherf et al.
# Submitted via: ExactAudioCopy v1.3
#
DISCID=5d08fa0a
DTITLE=Fenton Robinson - Nightflight
DYEAR=1984
DGENRE=Chicago Blues
TTITLE0=I Found Out Yesterday
TTITLE1=Slow Walking
TTITLE2=Canґt Hold Out Much Longer
TTITLE3=Nightflight
TTITLE4=The Feeeling Is Gone
TTITLE5=Laundry Man
TTITLE6=Crazy, Crazy Lovin
TTITLE7=I Lost My True Love
TTITLE8=Schoolboy
TTITLE9=Sinnerґs Prayer
EXTD=
EXTT0=
EXTT1=
EXTT2=
EXTT3=
EXTT4=
EXTT5=
EXTT6=
EXTT7=
EXTT8=
EXTT9=
PLAYORDER=
